<svg width="25" height="26" viewBox="0 0 25 26" fill="none" xmlns="http://www.w3.org/2000/svg">
<path d="M19.7915 11.9164H7.43734L11.2186 7.19306C11.3954 6.97183 11.4805 6.68661 11.4551 6.40014C11.4297 6.11368 11.2959 5.84945 11.0832 5.66556C10.8704 5.48168 10.5962 5.39321 10.3207 5.41962C10.0453 5.44603 9.79123 5.58516 9.61442 5.8064L4.40609 12.3064C4.37105 12.3581 4.33971 12.4124 4.31234 12.4689C4.31234 12.5231 4.31234 12.5556 4.23942 12.6097C4.19221 12.7339 4.16748 12.8662 4.1665 12.9997C4.16748 13.1333 4.19221 13.2655 4.23942 13.3897C4.23942 13.4439 4.23942 13.4764 4.31234 13.5306C4.33971 13.587 4.37105 13.6414 4.40609 13.6931L9.61442 20.1931C9.71236 20.3154 9.83501 20.4137 9.97364 20.4811C10.1123 20.5485 10.2635 20.5833 10.4165 20.5831C10.6599 20.5836 10.8958 20.4954 11.0832 20.3339C11.1886 20.243 11.2758 20.1313 11.3397 20.0052C11.4037 19.8792 11.443 19.7413 11.4556 19.5994C11.4682 19.4575 11.4537 19.3144 11.4131 19.1783C11.3724 19.0423 11.3063 18.9159 11.2186 18.8064L7.43734 14.0831H19.7915C20.0678 14.0831 20.3327 13.9689 20.5281 13.7658C20.7234 13.5626 20.8332 13.287 20.8332 12.9997C20.8332 12.7124 20.7234 12.4369 20.5281 12.2337C20.3327 12.0305 20.0678 11.9164 19.7915 11.9164Z" fill="#9E9E9E"/>
</svg>
