<svg width="424" height="296" viewBox="0 0 424 296" fill="none" xmlns="http://www.w3.org/2000/svg">
<path d="M239.811 97.6591C210.836 80.1199 171.651 59.8894 124.955 44.308C116.27 54.17 109.572 65.8174 105.504 78.6447C137.941 94.663 182.665 117.231 219.317 135.813C227.97 122.271 234.656 109.32 239.811 97.6591Z" fill="#26A7E2"/>
<path d="M243.999 96.342C253.628 102.237 262.087 107.802 269.266 112.754C271.161 106.447 272.601 100.429 273.674 94.8361C274.701 89.4752 275.444 84.312 275.966 79.4079C269.431 72.7209 262.923 66.4529 256.501 60.5761C254.361 68.4412 251.572 77.2428 247.928 86.7014C246.737 89.7903 245.43 93.0103 243.999 96.342Z" fill="#6ED1FF"/>
<path d="M222.28 137.315C233.101 142.804 243.144 147.906 251.878 152.348C259.301 139.85 264.548 127.521 268.235 116.061C261.019 111.06 252.463 105.406 242.662 99.3951C237.507 111.008 230.848 123.872 222.28 137.315Z" fill="#26A7E2"/>
<path d="M199.405 11.7958C215.591 22.4737 234.638 36.5373 254.682 54.4729C256.7 46.3871 257.976 39.554 258.782 34.3342C242.665 20.7334 222.008 12.3639 199.405 11.7958Z" fill="#93DDFF"/>
<path d="M271.075 118.042C267.355 129.388 262.128 141.542 254.836 153.853C262.844 157.926 269.59 161.363 274.639 163.937C281.534 154.434 286.741 143.63 289.788 131.945C285.687 128.7 279.396 123.893 271.075 118.042Z" fill="#26A7E2"/>
<path d="M234.33 181.942C240.13 183.355 246.134 184.705 252.334 185.984C260.006 180.549 266.84 174.021 272.616 166.619C267.583 164.053 260.94 160.67 253.121 156.692C247.911 165.131 241.711 173.616 234.33 181.942Z" fill="#1189DF"/>
<path d="M217.504 138.603C181.116 120.156 136.845 97.8166 104.562 81.8677C102.273 90.0804 101.023 98.7269 101.023 107.669C101.023 112.607 101.398 117.457 102.117 122.194C116.121 133.543 145.27 153.433 193.685 170.086C202.881 159.488 210.762 148.894 217.504 138.603Z" fill="#1189DF"/>
<path d="M276.948 95.321C275.793 101.365 274.228 107.891 272.125 114.742C280.119 120.339 286.336 125.036 290.623 128.394C292.094 121.716 292.893 114.788 292.893 107.669C292.893 104.047 292.675 100.476 292.283 96.9574C287.842 91.9433 283.39 87.115 278.945 82.4863C278.446 86.6109 277.792 90.9008 276.948 95.321Z" fill="#6ED1FF"/>
<path d="M191.345 172.764C146.469 157.159 118.083 138.796 102.993 127.096C109.849 160.429 134.004 187.427 165.653 198.352C175.153 189.948 183.698 181.366 191.345 172.764Z" fill="#0069B5"/>
<path d="M228.151 183.806C216.144 180.736 205.018 177.406 194.728 173.925C187.151 182.528 178.691 191.116 169.294 199.536C178.055 202.171 187.337 203.604 196.958 203.604C200.399 203.604 203.795 203.415 207.142 203.062C214.987 196.841 221.961 190.387 228.151 183.806Z" fill="#0069B5"/>
<path d="M241.142 94.6023C242.482 91.4667 243.717 88.4277 244.84 85.5118C248.699 75.4996 251.588 66.2399 253.754 58.08C231.615 38.1261 210.649 22.9193 193.407 11.8243C167.438 12.7708 144.116 24.033 127.396 41.6426C173.527 57.177 212.313 77.182 241.142 94.6023Z" fill="#6ED1FF"/>
<path d="M250.158 155.185C241.392 150.726 231.321 145.61 220.471 140.107C213.824 150.281 206.085 160.751 197.072 171.232C207.415 174.692 218.61 177.996 230.692 181.037C238.382 172.524 244.801 163.829 250.158 155.185Z" fill="#1189DF"/>
<path d="M213.479 202.158C226.191 199.951 238.038 195.245 248.507 188.56C242.768 187.339 237.193 186.06 231.801 184.725C226.329 190.657 220.242 196.492 213.479 202.158Z" fill="#0069B5"/>
<path d="M257.455 56.9697C263.694 62.638 270.018 68.6856 276.372 75.1119C277.007 67.52 277.124 60.6497 276.982 54.7675C272.631 48.2017 267.504 42.1973 261.717 36.8981C260.824 42.2929 259.478 49.0912 257.455 56.9697Z" fill="#93DDFF"/>
<path d="M279.409 78.2081C283.411 82.3289 287.422 86.6154 291.428 91.0451C289.499 80.0109 285.69 69.6308 280.335 60.2374C280.307 65.6549 280.049 71.6942 279.409 78.2081Z" fill="#93DDFF"/>
<path d="M113.146 156.058C121.772 171.001 118.14 186.489 118.139 186.489C118.139 186.489 133.627 182.855 148.569 191.482C149.479 192.007 150.349 192.558 151.185 193.128L221.785 107.669L184.373 78.2273L240.619 20.6636C229.419 11.9391 225.808 0.000639721 225.808 0C225.808 0 214.212 10.8916 196.958 10.8916C179.704 10.8916 168.108 0.0015993 168.108 0C168.108 0 163.512 15.2298 148.569 23.8568C133.627 32.4841 118.14 28.8511 118.139 28.8501C118.139 28.8501 121.772 44.3378 113.146 59.2804C104.519 74.2224 89.29 78.8197 89.2887 78.8191C89.2887 78.8191 100.18 90.4153 100.18 107.669C100.18 124.923 89.29 136.519 89.2887 136.52C89.2887 136.52 104.519 141.116 113.146 156.058Z" fill="#EDBC16"/>
<path d="M189.094 81.9412C152.659 116.399 117.957 134.696 100.68 142.482C104.94 145.527 109.6 149.918 113.146 156.058C121.772 171.001 118.14 186.489 118.139 186.489C118.139 186.489 133.627 182.855 148.569 191.482C149.479 192.007 150.349 192.558 151.185 193.128L221.785 107.669L189.094 81.9412Z" fill="#EBA123"/>
<path d="M254.851 104.408C254.782 103.863 254.448 103.388 253.958 103.14L209.674 80.665L249.388 13.9885C249.795 13.3056 249.658 12.4301 249.064 11.9036C248.468 11.3765 247.583 11.3483 246.954 11.8345L157.068 81.4685C156.622 81.8142 156.383 82.3631 156.434 82.9245C156.484 83.4855 156.816 83.9832 157.316 84.2439L199.967 106.452L146.296 196.479C145.878 197.179 146.033 198.076 146.659 198.597C146.965 198.853 147.341 198.979 147.717 198.979C148.107 198.979 148.496 198.843 148.808 198.568L254.303 105.857C254.714 105.494 254.92 104.952 254.851 104.408Z" fill="white"/>
<path d="M39.2101 294.232H0V226.115H39.2101V237.945H14.4056V252.923H37.4931V264.753H14.4056V282.307H39.2101V294.232Z" fill="#0069B5"/>
<path d="M109.903 259.506C109.903 267.138 108.472 273.53 105.515 278.682C102.558 283.833 98.3597 287.745 92.7311 290.321C87.1975 292.897 80.5195 294.232 72.6966 294.232H53.4254V226.115H74.7952C81.9505 226.115 88.1517 227.355 93.3987 229.931C98.646 232.507 102.653 236.228 105.515 241.189C108.472 246.054 109.903 252.16 109.903 259.506ZM94.9253 259.888C94.9253 254.831 94.1618 250.729 92.7311 247.485C91.3 244.242 89.1058 241.856 86.1481 240.33C83.2863 238.708 79.7563 237.945 75.5584 237.945H67.8309V282.307H74.0321C81.092 282.307 86.339 280.399 89.7734 276.678C93.208 272.958 94.9253 267.329 94.9253 259.888Z" fill="#0069B5"/>
<path d="M152.834 294.232L136.425 240.807H136.044C136.139 242.047 136.234 243.955 136.33 246.531C136.425 249.107 136.616 251.778 136.711 254.736C136.807 257.598 136.902 260.174 136.902 262.559V294.232H124.023V226.115H143.676L159.799 278.205H160.085L177.162 226.115H196.815V294.232H183.363V261.986C183.363 259.792 183.363 257.312 183.459 254.545C183.554 251.778 183.745 249.107 183.84 246.531C183.935 244.051 183.935 242.143 184.031 240.903H183.649L166.095 294.232H152.834Z" fill="#0069B5"/>
<path d="M275.808 260.078C275.808 265.326 275.14 270.191 273.9 274.484C272.564 278.777 270.561 282.403 267.985 285.551C265.314 288.699 261.974 291.084 257.872 292.706C253.77 294.328 248.904 295.186 243.371 295.186C237.838 295.186 232.972 294.328 228.87 292.706C224.768 290.989 221.429 288.604 218.757 285.551C216.182 282.403 214.178 278.682 212.938 274.389C211.602 270.096 210.934 265.23 210.934 259.983C210.934 252.923 212.079 246.817 214.369 241.57C216.754 236.323 220.284 232.316 225.149 229.454C229.919 226.497 236.025 225.066 243.467 225.066C250.812 225.066 256.918 226.497 261.688 229.454C266.459 232.316 269.988 236.323 272.278 241.57C274.663 246.817 275.808 253.019 275.808 260.078ZM226.103 260.078C226.103 264.848 226.676 268.951 227.916 272.385C229.156 275.819 230.969 278.491 233.545 280.304C236.12 282.116 239.364 283.07 243.371 283.07C247.474 283.07 250.813 282.116 253.293 280.304C255.869 278.491 257.682 275.819 258.922 272.385C260.066 268.951 260.639 264.848 260.639 260.078C260.639 252.923 259.303 247.294 256.632 243.192C253.961 239.09 249.572 237.086 243.467 237.086C239.364 237.086 236.12 238.04 233.545 239.853C230.969 241.666 229.156 244.337 227.916 247.771C226.676 251.206 226.103 255.308 226.103 260.078Z" fill="#0069B5"/>
<path d="M350.317 294.232H332L302.33 242.715H301.948C302.044 244.909 302.139 247.008 302.234 249.202C302.33 251.397 302.425 253.495 302.52 255.69C302.616 257.884 302.711 259.983 302.807 262.177V294.232H289.928V226.115H308.149L337.724 277.155H338.01C337.915 275.056 337.915 272.958 337.819 270.859C337.724 268.76 337.629 266.661 337.533 264.562C337.438 262.559 337.438 260.46 337.342 258.361V226.115H350.317V294.232Z" fill="#0069B5"/>
<path d="M423.968 259.506C423.968 267.138 422.537 273.53 419.579 278.682C416.622 283.833 412.424 287.745 406.795 290.321C401.262 292.897 394.584 294.232 386.761 294.232H367.49V226.115H388.86C396.015 226.115 402.216 227.355 407.463 229.931C412.71 232.507 416.717 236.228 419.579 241.189C422.537 246.054 423.968 252.16 423.968 259.506ZM408.99 259.888C408.99 254.831 408.226 250.729 406.795 247.485C405.364 244.242 403.17 241.856 400.212 240.33C397.351 238.708 393.821 237.945 389.623 237.945H381.895V282.307H388.096C395.156 282.307 400.403 280.399 403.838 276.678C407.272 272.958 408.99 267.329 408.99 259.888Z" fill="#0069B5"/>
</svg>
